<svg xmlns="http://www.w3.org/2000/svg" viewBox="0 0 48 48"><style>@media (prefers-color-scheme:dark){path{fill:#ed1e79}}</style><path d="M24.91.24C11.79-.26.75 9.96.24 23.07c-.01.31-.02.62-.02.93a8.177 8.177 0 0 0 10.34 7.89l1.9-.53a5.092 5.092 0 0 1 6.43 4.92v6.38c0 2.81 2.28 5.09 5.09 5.09 13.13 0 23.77-10.62 23.78-23.75 0-.31 0-.62-.02-.93C47.25 10.69 37.31.75 24.91.24m13.77 37.88A20.25 20.25 0 0 1 24 44.38c-.94 0-1.7-.76-1.7-1.7V36.3c0-4.69-3.8-8.49-8.49-8.49-.76 0-1.52.1-2.26.31l-1.9.53c-2.55.68-5.18-.83-5.86-3.38-.11-.41-.16-.83-.16-1.25 0-11.25 9.1-20.38 20.36-20.39.27 0 .54 0 .81.02 10.57.55 19.02 9 19.57 19.57.24 5.54-1.82 10.94-5.69 14.92z" fill="#1b1464"/></svg>