<?xml version="1.0" encoding="UTF-8"?>
<svg id="Capa_2" data-name="Capa 2" xmlns="http://www.w3.org/2000/svg" viewBox="0 0 337.87 337.87">
  <defs>
    <style>
      .cls-1 {
        fill: #ed1e79;
      }
    </style>
  </defs>
  <g id="Capa_1-2" data-name="Capa 1">
    <path class="cls-1" d="M175.38.13C82.19-3.47,3.72,69.16.13,162.36.04,164.57,0,166.78,0,169c0,32.11,26.03,58.14,58.14,58.14,5.18,0,10.33-.69,15.32-2.05l13.51-3.74c19.28-5.26,39.18,6.1,44.44,25.38.85,3.13,1.28,6.36,1.28,9.6v45.35c0,19.99,16.2,36.19,36.19,36.19,93.26.07,168.93-75.48,169-168.74,0-2.21-.04-4.43-.13-6.64C334.11,74.36,263.5,3.76,175.38.13ZM273.21,269.36v-.12c-27.22,28.5-64.93,44.58-104.34,44.51-6.66,0-12.06-5.4-12.06-12.06v-45.35c0-33.31-27-60.31-60.31-60.31-5.42,0-10.81.74-16.04,2.17l-13.51,3.74c-18.15,4.86-36.8-5.9-41.66-24.05-.78-2.9-1.17-5.88-1.16-8.88-.06-79.94,64.69-144.8,144.63-144.86,1.93,0,3.85.04,5.78.11,75.13,3.91,135.16,63.95,139.08,139.08,1.68,39.39-12.94,77.74-40.41,106.03Z"/>
  </g>
</svg>