<?xml version="1.0" encoding="UTF-8"?>
<svg id="Capa_2" data-name="Capa 2" xmlns="http://www.w3.org/2000/svg" viewBox="0 0 1135.84 221.07">
  <defs>
    <style>
      .cls-1 {
        fill: #ed1e79;
      }
    </style>
  </defs>
  <g id="Capa_1-2" data-name="Capa 1">
    <g>
      <path class="cls-1" d="M114.75.08C53.78-2.27,2.44,45.25.08,106.23.03,107.68,0,109.13,0,110.58c0,21.01,17.03,38.04,38.04,38.04,3.39,0,6.76-.45,10.03-1.34l8.84-2.45c12.61-3.44,25.63,3.99,29.08,16.61.56,2.05.84,4.16.84,6.28v29.67c0,13.08,10.6,23.68,23.68,23.68,61.02.05,110.53-49.39,110.57-110.41,0-1.45-.03-2.9-.08-4.34C218.61,48.66,172.41,2.46,114.75.08ZM178.76,176.24v-.08c-17.81,18.65-42.48,29.17-68.27,29.12-4.36,0-7.89-3.53-7.89-7.89v-29.67c0-21.79-17.67-39.46-39.46-39.46-3.55,0-7.08.48-10.5,1.42l-8.84,2.45c-11.87,3.18-24.08-3.86-27.26-15.74-.51-1.89-.76-3.85-.76-5.81-.04-52.31,42.33-94.74,94.63-94.78,1.26,0,2.52.02,3.78.07,49.16,2.56,88.44,41.84,91,91,1.1,25.78-8.46,50.87-26.44,69.37Z"/>
      <polygon class="cls-1" points="316.82 101.8 281.23 101.8 281.23 63.57 261.13 63.57 261.13 157.49 281.23 157.49 281.23 118.73 316.82 118.73 316.82 157.49 336.93 157.49 336.93 63.57 316.82 63.57 316.82 101.8"/>
      <path class="cls-1" d="M396.19,126.67c0,5.56-1.12,9.72-3.37,12.5-2.25,2.78-5.4,4.17-9.46,4.17-3.62,0-6.26-1.26-7.94-3.77-1.68-2.51-2.51-6.5-2.51-11.97v-41.01h-19.84v45.64c0,8.47,2.05,15.06,6.15,19.78,4.1,4.72,9.81,7.08,17.13,7.08,6.7,0,12.04-1.81,16.01-5.42,2.21-2.01,3.95-4.58,5.26-7.66l.3,11.49h18.12v-70.91h-19.84v40.08Z"/>
      <path class="cls-1" d="M485.68,88.31c-3.57-2.2-7.92-3.31-13.03-3.31-3.88,0-7.45.71-10.71,2.12-3.26,1.41-5.98,3.7-8.14,6.88-.82,1.2-1.53,2.56-2.14,4.06l-.44-11.47h-17.86v70.91h19.84v-39.02c0-5.73,1.1-10.12,3.31-13.16,2.2-3.04,5.38-4.56,9.52-4.56,2.82,0,5.03.68,6.61,2.05,1.59,1.37,2.69,3.37,3.31,6.02.62,2.65.93,5.87.93,9.66v39.02h19.84v-45.64c0-5.47-.95-10.21-2.84-14.22-1.9-4.01-4.63-7.12-8.2-9.33Z"/>
      <path class="cls-1" d="M537.47,69.92h-19.84v16.67h-11.38v14.82h11.38v34.79c0,7.41,1.72,12.81,5.16,16.21,3.44,3.4,8.82,5.09,16.14,5.09h17.2v-14.82h-9.92c-2.91,0-5.09-.62-6.55-1.85-1.46-1.23-2.18-3.57-2.18-7.01v-32.41h18.65v-14.82h-18.65v-16.67Z"/>
      <path class="cls-1" d="M616.71,89.63c-5.2-3.09-11.33-4.63-18.39-4.63s-13.49,1.54-18.78,4.63c-5.29,3.09-9.42,7.39-12.37,12.9-2.96,5.51-4.43,12.02-4.43,19.51s1.48,14.02,4.43,19.58c2.95,5.56,7.1,9.86,12.43,12.9,5.33,3.04,11.62,4.56,18.85,4.56,8.55,0,15.83-1.98,21.83-5.95,6-3.97,9.92-9.48,11.77-16.54l-19.98-1.19c-.97,2.91-2.58,5.07-4.83,6.48-2.25,1.41-5.05,2.12-8.4,2.12-4.59,0-8.27-1.37-11.05-4.1-2.78-2.73-4.3-6.92-4.56-12.57h49.87v-3.97c0-7.94-1.43-14.77-4.3-20.5-2.87-5.73-6.9-10.14-12.1-13.23ZM583.24,115.16c.53-4.94,2.14-8.75,4.83-11.44,2.69-2.69,6.11-4.03,10.25-4.03s7.52,1.28,10.12,3.84c2.6,2.56,4.03,6.44,4.3,11.64h-29.5Z"/>
      <path class="cls-1" d="M669.36,91.35c-2.05,2.24-3.65,5.48-4.83,9.69l-.46-14.45h-18.79v70.91h19.84v-39.82c0-3.62.59-6.48,1.79-8.6,1.19-2.12,2.98-3.66,5.36-4.63,2.38-.97,5.42-1.46,9.13-1.46h6.48v-16.4h-6.48c-5.12,0-9.13,1.59-12.04,4.76Z"/>
      <path class="cls-1" d="M757.4,137.32c-3.49,3.57-8.4,5.36-14.75,5.36-4.85,0-9.04-1.28-12.57-3.84-3.53-2.56-6.24-6.24-8.14-11.05-1.9-4.81-2.84-10.52-2.84-17.13s.93-12.21,2.78-17.06c1.85-4.85,4.54-8.6,8.07-11.24,3.53-2.65,7.81-3.97,12.83-3.97,5.82,0,10.49,1.65,14.02,4.96,3.53,3.31,5.82,7.92,6.88,13.82l20.9-.79c-1.94-11.2-6.33-19.82-13.16-25.86-6.83-6.04-16.38-9.06-28.64-9.06-9,0-16.85,2.03-23.55,6.08-6.7,4.06-11.86,9.77-15.48,17.13-3.62,7.36-5.42,16.03-5.42,25.99s1.87,19.01,5.62,26.32c3.75,7.32,8.95,12.92,15.61,16.8,6.66,3.88,14.26,5.82,22.82,5.82s15.23-1.46,21.1-4.37c5.86-2.91,10.6-7.05,14.22-12.43,3.62-5.38,6.04-11.91,7.28-19.58l-21.03-.79c-.88,6.35-3.07,11.31-6.55,14.88Z"/>
      <path class="cls-1" d="M848.47,89.63c-5.38-3.09-11.69-4.63-18.92-4.63s-13.54,1.54-18.92,4.63c-5.38,3.09-9.57,7.39-12.57,12.9-3,5.51-4.5,12.02-4.5,19.51s1.5,14.02,4.5,19.58c3,5.56,7.19,9.86,12.57,12.9,5.38,3.04,11.68,4.56,18.92,4.56s13.54-1.52,18.92-4.56c5.38-3.04,9.57-7.34,12.57-12.9,3-5.56,4.5-12.08,4.5-19.58s-1.5-14-4.5-19.51c-3-5.51-7.19-9.81-12.57-12.9ZM841.07,138.11c-2.73,3.84-6.57,5.75-11.51,5.75s-8.78-1.92-11.51-5.75c-2.73-3.84-4.1-9.19-4.1-16.07s1.37-12.24,4.1-16.07c2.73-3.84,6.57-5.75,11.51-5.75s8.77,1.92,11.51,5.75c2.73,3.84,4.1,9.19,4.1,16.07s-1.37,12.24-4.1,16.07Z"/>
      <path class="cls-1" d="M899.8,141.36c-.97-.88-1.46-2.38-1.46-4.5V63.57h-19.84v75.4c0,6.53,1.63,11.24,4.89,14.15,3.26,2.91,7.81,4.37,13.63,4.37h11.77v-14.82h-4.76c-1.85,0-3.26-.44-4.23-1.32Z"/>
      <path class="cls-1" d="M969.65,89.63c-5.38-3.09-11.69-4.63-18.92-4.63s-13.54,1.54-18.92,4.63c-5.38,3.09-9.57,7.39-12.57,12.9-3,5.51-4.5,12.02-4.5,19.51s1.5,14.02,4.5,19.58c3,5.56,7.19,9.86,12.57,12.9,5.38,3.04,11.68,4.56,18.92,4.56s13.54-1.52,18.92-4.56c5.38-3.04,9.57-7.34,12.57-12.9,3-5.56,4.5-12.08,4.5-19.58s-1.5-14-4.5-19.51c-3-5.51-7.19-9.81-12.57-12.9ZM962.24,138.11c-2.73,3.84-6.57,5.75-11.51,5.75s-8.78-1.92-11.51-5.75c-2.73-3.84-4.1-9.19-4.1-16.07s1.37-12.24,4.1-16.07c2.73-3.84,6.57-5.75,11.51-5.75s8.77,1.92,11.51,5.75c2.73,3.84,4.1,9.19,4.1,16.07s-1.37,12.24-4.1,16.07Z"/>
      <path class="cls-1" d="M1023.09,91.35c-2.05,2.24-3.65,5.48-4.83,9.69l-.46-14.45h-18.79v70.91h19.84v-39.82c0-3.62.59-6.48,1.79-8.6,1.19-2.12,2.98-3.66,5.36-4.63,2.38-.97,5.42-1.46,9.13-1.46h6.48v-16.4h-6.48c-5.12,0-9.13,1.59-12.04,4.76Z"/>
      <polygon class="cls-1" points="1056.29 72.45 1066.63 72.45 1066.63 100.21 1076.76 100.21 1076.76 72.45 1086.99 72.45 1086.99 63.57 1056.29 63.57 1056.29 72.45"/>
      <polygon class="cls-1" points="1131.67 63.57 1126.34 63.57 1123.63 63.57 1113.72 90.21 1103.9 63.57 1101.08 63.57 1095.13 63.57 1091.58 63.57 1091.58 100.21 1101.08 100.21 1101.08 78.93 1109.33 100.21 1118.1 100.21 1126.34 77.95 1126.34 100.21 1135.84 100.21 1135.84 63.57 1131.67 63.57"/>
    </g>
  </g>
</svg>